<svg xmlns="http://www.w3.org/2000/svg" viewBox="0 0 1200 800" class="cyberpunk-cityscape">
  <defs>
    <!-- Neon glow filters -->
    <filter id="neonGlow" x="-50%" y="-50%" width="200%" height="200%">
      <feGaussianBlur stdDeviation="3" result="coloredBlur"/>
      <feMerge> 
        <feMergeNode in="coloredBlur"/>
        <feMergeNode in="SourceGraphic"/>
      </feMerge>
    </filter>
    
    <filter id="strongGlow" x="-100%" y="-100%" width="300%" height="300%">
      <feGaussianBlur stdDeviation="8" result="coloredBlur"/>
      <feMerge> 
        <feMergeNode in="coloredBlur"/>
        <feMergeNode in="SourceGraphic"/>
      </feMerge>
    </filter>

    <!-- Gradients -->
    <linearGradient id="skyGradient" x1="0%" y1="0%" x2="0%" y2="100%">
      <stop offset="0%" style="stop-color:#0a0a1a;stop-opacity:1" />
      <stop offset="50%" style="stop-color:#1a0a2e;stop-opacity:1" />
      <stop offset="100%" style="stop-color:#2d1b3d;stop-opacity:1" />
    </linearGradient>

    <linearGradient id="buildingGradient1" x1="0%" y1="0%" x2="0%" y2="100%">
      <stop offset="0%" style="stop-color:#1a1a2e;stop-opacity:1" />
      <stop offset="100%" style="stop-color:#0f0f1a;stop-opacity:1" />
    </linearGradient>

    <linearGradient id="buildingGradient2" x1="0%" y1="0%" x2="0%" y2="100%">
      <stop offset="0%" style="stop-color:#2d1b3d;stop-opacity:1" />
      <stop offset="100%" style="stop-color:#1a0f2e;stop-opacity:1" />
    </linearGradient>
  </defs>

  <!-- Sky background -->
  <rect width="1200" height="800" fill="url(#skyGradient)"/>

  <!-- Background buildings (far) -->
  <rect x="0" y="400" width="80" height="400" fill="url(#buildingGradient1)" opacity="0.6"/>
  <rect x="100" y="350" width="60" height="450" fill="url(#buildingGradient2)" opacity="0.6"/>
  <rect x="180" y="380" width="70" height="420" fill="url(#buildingGradient1)" opacity="0.6"/>
  <rect x="270" y="320" width="50" height="480" fill="url(#buildingGradient2)" opacity="0.6"/>
  
  <!-- Mid-ground buildings -->
  <rect x="50" y="300" width="90" height="500" fill="url(#buildingGradient1)" opacity="0.8"/>
  <rect x="160" y="250" width="80" height="550" fill="url(#buildingGradient2)" opacity="0.8"/>
  <rect x="260" y="280" width="100" height="520" fill="url(#buildingGradient1)" opacity="0.8"/>
  <rect x="380" y="200" width="70" height="600" fill="url(#buildingGradient2)" opacity="0.8"/>
  <rect x="470" y="240" width="85" height="560" fill="url(#buildingGradient1)" opacity="0.8"/>

  <!-- Foreground buildings with neon details -->
  <rect x="600" y="150" width="120" height="650" fill="url(#buildingGradient1)"/>
  <rect x="750" y="100" width="100" height="700" fill="url(#buildingGradient2)"/>
  <rect x="880" y="180" width="90" height="620" fill="url(#buildingGradient1)"/>
  <rect x="990" y="120" width="110" height="680" fill="url(#buildingGradient2)"/>
  <rect x="1120" y="200" width="80" height="600" fill="url(#buildingGradient1)"/>

  <!-- Neon window lights -->
  <!-- Building 1 windows -->
  <rect x="620" y="200" width="8" height="12" fill="#00ffff" filter="url(#neonGlow)" opacity="0.9"/>
  <rect x="640" y="200" width="8" height="12" fill="#ff0080" filter="url(#neonGlow)" opacity="0.9"/>
  <rect x="660" y="200" width="8" height="12" fill="#00ffff" filter="url(#neonGlow)" opacity="0.9"/>
  <rect x="680" y="200" width="8" height="12" fill="#ff0080" filter="url(#neonGlow)" opacity="0.9"/>
  
  <rect x="620" y="240" width="8" height="12" fill="#ff0080" filter="url(#neonGlow)" opacity="0.9"/>
  <rect x="660" y="240" width="8" height="12" fill="#00ffff" filter="url(#neonGlow)" opacity="0.9"/>
  <rect x="700" y="240" width="8" height="12" fill="#ff0080" filter="url(#neonGlow)" opacity="0.9"/>

  <!-- Building 2 windows -->
  <rect x="770" y="180" width="8" height="12" fill="#a855f7" filter="url(#neonGlow)" opacity="0.9"/>
  <rect x="790" y="180" width="8" height="12" fill="#00ffff" filter="url(#neonGlow)" opacity="0.9"/>
  <rect x="810" y="180" width="8" height="12" fill="#ff0080" filter="url(#neonGlow)" opacity="0.9"/>
  
  <rect x="770" y="220" width="8" height="12" fill="#00ffff" filter="url(#neonGlow)" opacity="0.9"/>
  <rect x="810" y="220" width="8" height="12" fill="#a855f7" filter="url(#neonGlow)" opacity="0.9"/>

  <!-- Building 3 windows -->
  <rect x="900" y="240" width="8" height="12" fill="#ff0080" filter="url(#neonGlow)" opacity="0.9"/>
  <rect x="920" y="240" width="8" height="12" fill="#00ffff" filter="url(#neonGlow)" opacity="0.9"/>
  <rect x="940" y="240" width="8" height="12" fill="#a855f7" filter="url(#neonGlow)" opacity="0.9"/>

  <!-- Neon signs -->
  <rect x="630" y="300" width="60" height="20" fill="none" stroke="#00ffff" stroke-width="2" filter="url(#strongGlow)"/>
  <text x="660" y="314" text-anchor="middle" fill="#00ffff" font-family="Arial, sans-serif" font-size="12" font-weight="bold" filter="url(#neonGlow)">TECH</text>
  
  <rect x="770" y="280" width="50" height="18" fill="none" stroke="#ff0080" stroke-width="2" filter="url(#strongGlow)"/>
  <text x="795" y="293" text-anchor="middle" fill="#ff0080" font-family="Arial, sans-serif" font-size="11" font-weight="bold" filter="url(#neonGlow)">CYBER</text>

  <!-- Futuristic car -->
  <g transform="translate(300, 650)">
    <!-- Car body -->
    <ellipse cx="40" cy="20" rx="35" ry="12" fill="#1a1a2e" stroke="#00ffff" stroke-width="1" filter="url(#neonGlow)"/>
    <!-- Car windows -->
    <ellipse cx="40" cy="18" rx="25" ry="8" fill="#0a0a1a" stroke="#a855f7" stroke-width="1" filter="url(#neonGlow)"/>
    <!-- Headlights -->
    <circle cx="70" cy="20" r="3" fill="#ffffff" filter="url(#strongGlow)"/>
    <circle cx="70" cy="20" r="1.5" fill="#00ffff" filter="url(#strongGlow)"/>
    <!-- Underglow -->
    <ellipse cx="40" cy="30" rx="40" ry="5" fill="#00ffff" opacity="0.3" filter="url(#strongGlow)"/>
  </g>

  <!-- Another car -->
  <g transform="translate(800, 680)">
    <ellipse cx="30" cy="15" rx="28" ry="10" fill="#2d1b3d" stroke="#ff0080" stroke-width="1" filter="url(#neonGlow)"/>
    <ellipse cx="30" cy="13" rx="20" ry="6" fill="#0a0a1a" stroke="#a855f7" stroke-width="1" filter="url(#neonGlow)"/>
    <circle cx="55" cy="15" r="2.5" fill="#ffffff" filter="url(#strongGlow)"/>
    <circle cx="55" cy="15" r="1" fill="#ff0080" filter="url(#strongGlow)"/>
    <ellipse cx="30" cy="23" rx="32" ry="4" fill="#ff0080" opacity="0.3" filter="url(#strongGlow)"/>
  </g>

  <!-- Light rays and atmospheric effects -->
  <polygon points="650,800 680,300 720,300 690,800" fill="url(#lightBeam1)" opacity="0.1"/>
  <polygon points="800,800 820,280 840,280 820,800" fill="url(#lightBeam2)" opacity="0.1"/>
  
  <defs>
    <linearGradient id="lightBeam1" x1="0%" y1="100%" x2="0%" y2="0%">
      <stop offset="0%" style="stop-color:#00ffff;stop-opacity:0.3" />
      <stop offset="100%" style="stop-color:#00ffff;stop-opacity:0" />
    </linearGradient>
    <linearGradient id="lightBeam2" x1="0%" y1="100%" x2="0%" y2="0%">
      <stop offset="0%" style="stop-color:#ff0080;stop-opacity:0.3" />
      <stop offset="100%" style="stop-color:#ff0080;stop-opacity:0" />
    </linearGradient>
  </defs>

  <!-- Floating particles -->
  <circle cx="200" cy="300" r="1" fill="#00ffff" opacity="0.6" filter="url(#neonGlow)">
    <animate attributeName="cy" values="300;280;300" dur="3s" repeatCount="indefinite"/>
  </circle>
  <circle cx="500" cy="250" r="1.5" fill="#ff0080" opacity="0.6" filter="url(#neonGlow)">
    <animate attributeName="cy" values="250;230;250" dur="4s" repeatCount="indefinite"/>
  </circle>
  <circle cx="900" cy="320" r="1" fill="#a855f7" opacity="0.6" filter="url(#neonGlow)">
    <animate attributeName="cy" values="320;300;320" dur="3.5s" repeatCount="indefinite"/>
  </circle>
</svg>